<?xml version="1.0" encoding="utf-8"?>
<!-- Generator: Adobe Illustrator 16.0.0, SVG Export Plug-In . SVG Version: 6.00 Build 0)  -->
<!DOCTYPE svg PUBLIC "-//W3C//DTD SVG 1.1//EN" "http://www.w3.org/Graphics/SVG/1.1/DTD/svg11.dtd">
<svg version="1.1" id="Layer_1" xmlns="http://www.w3.org/2000/svg" xmlns:xlink="http://www.w3.org/1999/xlink" x="0px" y="0px"
	 width="64px" height="64px" viewBox="0 0 64 64" enable-background="new 0 0 64 64" xml:space="preserve">
<g>
	<g>
		<g>
			<polyline fill="none" stroke="#622FBC" stroke-width="2" stroke-miterlimit="10" points="22.165,8.981 59.165,8.981 
				59.165,28.981 22.165,28.981 			"/>
			<g>
				<circle fill="none" stroke="#622FBC" stroke-width="2" stroke-miterlimit="10" cx="12.165" cy="5.981" r="5"/>
			</g>
			<path fill="none" stroke="#622FBC" stroke-width="2" stroke-miterlimit="10" d="M7.165,27.981v9h-6v-15c0-3.866,3.133-7,7-7h8h19
				v6h-16v16h44v-32h-43"/>
			<line fill="none" stroke="#622FBC" stroke-width="2" stroke-miterlimit="10" x1="22.165" y1="32.981" x2="60.165" y2="32.981"/>
			<g>
				<path fill="none" stroke="#622FBC" stroke-width="2" stroke-miterlimit="10" d="M56.165,53.98l7,4c0,0,0,0.344,0,2
					c0,1.658-1,3-2,3h-58c-1,0-2-1.342-2-3c0-1.656,0-2,0-2l7-4"/>
				<polyline fill="none" stroke="#622FBC" stroke-width="2" stroke-miterlimit="10" points="35.165,53.98 43.165,57.98 
					43.165,57.98 50.165,53.98 				"/>
				<polyline fill="none" stroke="#622FBC" stroke-width="2" stroke-miterlimit="10" points="14.165,53.98 21.165,57.98 
					21.165,57.98 29.165,53.98 				"/>
				<path fill="none" stroke="#622FBC" stroke-width="2" stroke-miterlimit="10" d="M16.165,48.48c0,3.5-1.963,6.5-5,6.5s-5-3-5-6.5
					s1-5.5,5-5.5S16.165,44.98,16.165,48.48z"/>
				<path fill="none" stroke="#622FBC" stroke-width="2" stroke-miterlimit="10" d="M37.165,48.48c0,3.5-1.963,6.5-5,6.5s-5-3-5-6.5
					s1-5.5,5-5.5S37.165,44.98,37.165,48.48z"/>
				<path fill="none" stroke="#622FBC" stroke-width="2" stroke-miterlimit="10" d="M58.165,48.48c0,3.5-1.963,6.5-5,6.5s-5-3-5-6.5
					s1-5.5,5-5.5S58.165,44.98,58.165,48.48z"/>
				<line fill="none" stroke="#622FBC" stroke-width="2" stroke-miterlimit="10" x1="21.165" y1="57.98" x2="21.165" y2="60.98"/>
				<line fill="none" stroke="#622FBC" stroke-width="2" stroke-miterlimit="10" x1="43.165" y1="57.98" x2="43.165" y2="60.98"/>
			</g>
			<line fill="none" stroke="#622FBC" stroke-width="2" stroke-miterlimit="10" x1="12.165" y1="17.981" x2="12.165" y2="19.981"/>
			<line fill="none" stroke="#622FBC" stroke-width="2" stroke-miterlimit="10" x1="12.165" y1="21.981" x2="12.165" y2="23.981"/>
		</g>
	</g>
</g>
</svg>
