<?xml version="1.0" encoding="utf-8"?>
<!-- Generator: Adobe Illustrator 16.0.0, SVG Export Plug-In . SVG Version: 6.00 Build 0)  -->
<!DOCTYPE svg PUBLIC "-//W3C//DTD SVG 1.1//EN" "http://www.w3.org/Graphics/SVG/1.1/DTD/svg11.dtd">
<svg version="1.1" id="Layer_1" xmlns="http://www.w3.org/2000/svg" xmlns:xlink="http://www.w3.org/1999/xlink" x="0px" y="0px"
	 width="64px" height="64px" viewBox="0 0 64 64" enable-background="new 0 0 64 64" xml:space="preserve">
<g>
	<g>
		<polyline fill="none" stroke="#622FBC" stroke-width="2" stroke-miterlimit="10" points="42.021,61.606 42.021,10.606 
			50.021,10.606 50.021,61.606 		"/>
		<polygon fill="none" stroke="#622FBC" stroke-width="2" stroke-miterlimit="10" points="59.021,10.606 37.021,10.606 
			30.022,7.606 30.022,5.606 37.021,2.606 59.021,2.606 		"/>
		<line fill="none" stroke="#622FBC" stroke-width="2" stroke-miterlimit="10" x1="51.021" y1="15.606" x2="41.021" y2="15.606"/>
	</g>
	<g>
		<polyline fill="none" stroke="#622FBC" stroke-width="2" stroke-miterlimit="10" points="53.021,25.606 63.021,25.606 
			63.021,51.606 1.022,51.606 1.022,25.606 27.022,25.606 		"/>
		<line fill="none" stroke="#622FBC" stroke-width="2" stroke-miterlimit="10" x1="5.022" y1="31.606" x2="7.022" y2="31.606"/>
		<line fill="none" stroke="#622FBC" stroke-width="2" stroke-miterlimit="10" x1="13.022" y1="31.606" x2="15.022" y2="31.606"/>
		<line fill="none" stroke="#622FBC" stroke-width="2" stroke-miterlimit="10" x1="17.022" y1="31.606" x2="19.022" y2="31.606"/>
		<line fill="none" stroke="#622FBC" stroke-width="2" stroke-miterlimit="10" x1="21.022" y1="31.606" x2="23.022" y2="31.606"/>
		<line fill="none" stroke="#622FBC" stroke-width="2" stroke-miterlimit="10" x1="25.022" y1="31.606" x2="27.022" y2="31.606"/>
		<line fill="none" stroke="#622FBC" stroke-width="2" stroke-miterlimit="10" x1="33.021" y1="31.606" x2="35.021" y2="31.606"/>
		<line fill="none" stroke="#622FBC" stroke-width="2" stroke-miterlimit="10" x1="45.021" y1="31.606" x2="47.021" y2="31.606"/>
		<line fill="none" stroke="#622FBC" stroke-width="2" stroke-miterlimit="10" x1="53.021" y1="31.606" x2="55.021" y2="31.606"/>
		<line fill="none" stroke="#622FBC" stroke-width="2" stroke-miterlimit="10" x1="57.021" y1="31.606" x2="59.021" y2="31.606"/>
		<line fill="none" stroke="#622FBC" stroke-width="2" stroke-miterlimit="10" x1="5.022" y1="36.606" x2="9.022" y2="36.606"/>
		<line fill="none" stroke="#622FBC" stroke-width="2" stroke-miterlimit="10" x1="15.022" y1="36.606" x2="17.022" y2="36.606"/>
		<line fill="none" stroke="#622FBC" stroke-width="2" stroke-miterlimit="10" x1="11.022" y1="36.606" x2="13.022" y2="36.606"/>
		<line fill="none" stroke="#622FBC" stroke-width="2" stroke-miterlimit="10" x1="19.022" y1="36.606" x2="21.022" y2="36.606"/>
		<line fill="none" stroke="#622FBC" stroke-width="2" stroke-miterlimit="10" x1="23.022" y1="36.606" x2="25.022" y2="36.606"/>
		<line fill="none" stroke="#622FBC" stroke-width="2" stroke-miterlimit="10" x1="53.021" y1="36.606" x2="59.021" y2="36.606"/>
		<line fill="none" stroke="#622FBC" stroke-width="2" stroke-miterlimit="10" x1="5.022" y1="40.606" x2="11.022" y2="40.606"/>
		<line fill="none" stroke="#622FBC" stroke-width="2" stroke-miterlimit="10" x1="17.022" y1="40.606" x2="19.022" y2="40.606"/>
		<line fill="none" stroke="#622FBC" stroke-width="2" stroke-miterlimit="10" x1="13.022" y1="40.606" x2="15.022" y2="40.606"/>
		<line fill="none" stroke="#622FBC" stroke-width="2" stroke-miterlimit="10" x1="21.022" y1="40.606" x2="23.022" y2="40.606"/>
		<line fill="none" stroke="#622FBC" stroke-width="2" stroke-miterlimit="10" x1="25.022" y1="40.606" x2="27.022" y2="40.606"/>
		<line fill="none" stroke="#622FBC" stroke-width="2" stroke-miterlimit="10" x1="45.021" y1="40.606" x2="47.021" y2="40.606"/>
		<line fill="none" stroke="#622FBC" stroke-width="2" stroke-miterlimit="10" x1="45.021" y1="36.606" x2="47.021" y2="36.606"/>
		<line fill="none" stroke="#622FBC" stroke-width="2" stroke-miterlimit="10" x1="53.021" y1="40.606" x2="55.021" y2="40.606"/>
		<line fill="none" stroke="#622FBC" stroke-width="2" stroke-miterlimit="10" x1="57.021" y1="40.606" x2="59.021" y2="40.606"/>
		<line fill="none" stroke="#622FBC" stroke-width="2" stroke-miterlimit="10" x1="20.022" y1="45.606" x2="42.021" y2="45.606"/>
		<line fill="none" stroke="#622FBC" stroke-width="2" stroke-miterlimit="10" x1="18.022" y1="45.606" x2="16.022" y2="45.606"/>
		<line fill="none" stroke="#622FBC" stroke-width="2" stroke-miterlimit="10" x1="14.022" y1="45.606" x2="10.022" y2="45.606"/>
		<line fill="none" stroke="#622FBC" stroke-width="2" stroke-miterlimit="10" x1="55.021" y1="45.606" x2="53.021" y2="45.606"/>
		<line fill="none" stroke="#622FBC" stroke-width="2" stroke-miterlimit="10" x1="50.021" y1="45.606" x2="45.021" y2="45.606"/>
	</g>
	<g>
		<line fill="none" stroke="#622FBC" stroke-width="2" stroke-miterlimit="10" x1="2.022" y1="10.606" x2="10.022" y2="10.606"/>
		<line fill="none" stroke="#622FBC" stroke-width="2" stroke-miterlimit="10" x1="2.022" y1="18.606" x2="8.022" y2="18.606"/>
		<line fill="none" stroke="#622FBC" stroke-width="2" stroke-miterlimit="10" x1="12.022" y1="10.606" x2="20.022" y2="10.606"/>
		<line fill="none" stroke="#622FBC" stroke-width="2" stroke-miterlimit="10" x1="22.022" y1="10.606" x2="24.022" y2="10.606"/>
		<line fill="none" stroke="#622FBC" stroke-width="2" stroke-miterlimit="10" x1="2.022" y1="14.606" x2="6.022" y2="14.606"/>
		<line fill="none" stroke="#622FBC" stroke-width="2" stroke-miterlimit="10" x1="8.022" y1="14.606" x2="14.022" y2="14.606"/>
		<line fill="none" stroke="#622FBC" stroke-width="2" stroke-miterlimit="10" x1="16.022" y1="14.606" x2="18.022" y2="14.606"/>
		<line fill="none" stroke="#622FBC" stroke-width="2" stroke-miterlimit="10" x1="6.022" y1="6.606" x2="0.022" y2="6.606"/>
	</g>
	<g>
		<polygon fill="none" stroke="#622FBC" stroke-width="2" stroke-miterlimit="10" points="38.021,40.606 30.022,40.606 
			30.022,38.606 32.022,36.606 30.022,34.606 30.022,21.606 32.022,19.606 30.022,17.606 30.022,15.606 38.021,15.606 
			38.021,17.606 36.021,19.606 38.021,21.606 38.021,34.606 36.021,36.606 38.021,38.606 		"/>
		<line fill="none" stroke="#622FBC" stroke-width="2" stroke-miterlimit="10" x1="34.021" y1="40.606" x2="34.021" y2="61.606"/>
	</g>
</g>
</svg>
