<?xml version="1.0" encoding="utf-8"?>
<!-- Generator: Adobe Illustrator 16.0.0, SVG Export Plug-In . SVG Version: 6.00 Build 0)  -->
<!DOCTYPE svg PUBLIC "-//W3C//DTD SVG 1.1//EN" "http://www.w3.org/Graphics/SVG/1.1/DTD/svg11.dtd">
<svg version="1.1" id="Layer_1" xmlns="http://www.w3.org/2000/svg" xmlns:xlink="http://www.w3.org/1999/xlink" x="0px" y="0px"
	 width="64px" height="64px" viewBox="0 0 64 64" enable-background="new 0 0 64 64" xml:space="preserve">
<g>
	<g>
		<g>
			<g>
				<polyline fill="none" stroke="#622FBC" stroke-width="2" stroke-miterlimit="10" points="30.165,63.916 30.165,16.917 
					62.601,16.917 				"/>
				<line fill="none" stroke="#622FBC" stroke-width="2" stroke-miterlimit="10" x1="26.165" y1="63.916" x2="26.165" y2="13.917"/>
				<polyline fill="none" stroke="#622FBC" stroke-width="2" stroke-miterlimit="10" points="38.165,36.916 38.165,22.917 
					44.165,22.917 				"/>
				<polyline fill="none" stroke="#622FBC" stroke-width="2" stroke-miterlimit="10" points="34.165,13.917 34.165,10.917 
					1.405,10.917 				"/>
				<line fill="none" stroke="#622FBC" stroke-width="2" stroke-miterlimit="10" x1="34.165" y1="51.916" x2="34.165" y2="19.917"/>
				<polyline fill="none" stroke="#622FBC" stroke-width="2" stroke-miterlimit="10" points="22.165,43.916 22.165,18.917 
					4.165,18.917 				"/>
				<line fill="none" stroke="#622FBC" stroke-width="2" stroke-miterlimit="10" x1="37.165" y1="10.917" x2="39.165" y2="10.917"/>
				<line fill="none" stroke="#622FBC" stroke-width="2" stroke-miterlimit="10" x1="41.165" y1="10.917" x2="43.165" y2="10.917"/>
				<polyline fill="none" stroke="#622FBC" stroke-width="2" stroke-miterlimit="10" points="58.601,20.917 62.601,16.917 
					58.601,12.917 				"/>
				<polyline fill="none" stroke="#622FBC" stroke-width="2" stroke-miterlimit="10" points="5.165,14.917 1.405,10.917 
					5.405,6.917 				"/>
				<line fill="none" stroke="#622FBC" stroke-width="2" stroke-miterlimit="10" x1="23.165" y1="14.917" x2="21.165" y2="14.917"/>
				<line fill="none" stroke="#622FBC" stroke-width="2" stroke-miterlimit="10" x1="19.165" y1="14.917" x2="17.165" y2="14.917"/>
			</g>
			<path fill="none" stroke="#622FBC" stroke-width="2" stroke-miterlimit="10" d="M17.165,63.916v-12c0-10-7-18.402-7-30
				c0-11.598,9.402-21,21-21s21,9.402,21,21l6,13v2h-6v9c0,3.314-2.688,6-6,6h-6v12"/>
			<line fill="none" stroke="#622FBC" stroke-width="2" stroke-miterlimit="10" x1="40.165" y1="51.916" x2="37.165" y2="51.916"/>
		</g>
	</g>
</g>
</svg>
