<?xml version="1.0" encoding="utf-8"?>
<!-- Generator: Adobe Illustrator 16.0.0, SVG Export Plug-In . SVG Version: 6.00 Build 0)  -->
<!DOCTYPE svg PUBLIC "-//W3C//DTD SVG 1.1//EN" "http://www.w3.org/Graphics/SVG/1.1/DTD/svg11.dtd">
<svg version="1.1" id="Layer_1" xmlns="http://www.w3.org/2000/svg" xmlns:xlink="http://www.w3.org/1999/xlink" x="0px" y="0px"
	 width="64px" height="64px" viewBox="0 0 64 64" enable-background="new 0 0 64 64" xml:space="preserve">
<g>
	<g>
		<g>
			<path fill="none" stroke="#622FBC" stroke-width="2" stroke-miterlimit="10" d="M42.334,41.98c0,0,20.408-14.483,20.408-30.941
				c0-5.455-4.422-9.877-9.875-9.877c-5.455,0-10.533,4.422-10.533,9.877c0-5.455-5.08-9.877-10.535-9.877
				c-5.453,0-9.875,4.422-9.875,9.877C21.924,27.497,42.334,41.98,42.334,41.98z"/>
		</g>
	</g>
	<path fill="none" stroke="#622FBC" stroke-width="2" stroke-miterlimit="10" d="M21.002,40.221"/>
	<g>
		<path fill="none" stroke="#622FBC" stroke-width="2" stroke-miterlimit="10" d="M13,40.837h9l11,4h9c1.656,0,3,1.342,3,3
			c0,1.656-1.344,3-3,3H31c-1.656,0-3,1.342-3,3"/>
		<path fill="none" stroke="#622FBC" stroke-width="2" stroke-miterlimit="10" d="M44,49.837l16-5c1.656,0,3,1.342,3,3
			c0,0.996-1,2-1,2l-25,13h-2l-17-6h-4"/>
		<line fill="none" stroke="#622FBC" stroke-width="2" stroke-miterlimit="10" x1="10" y1="54.837" x2="8" y2="54.837"/>
		<line fill="none" stroke="#622FBC" stroke-width="2" stroke-miterlimit="10" x1="6" y1="54.837" x2="4" y2="54.837"/>
		<path fill="none" stroke="#622FBC" stroke-width="2" stroke-miterlimit="10" d="M0,38.837h12c0.553,0,1,0.447,1,1v18
			c0,0.553-0.447,1-1,1H0"/>
	</g>
	<circle fill="none" stroke="#622FBC" stroke-width="2" stroke-miterlimit="10" cx="42.334" cy="23.582" r="3.287"/>
	<path fill="none" stroke="#622FBC" stroke-width="2" stroke-miterlimit="10" d="M26.066,10.811c0-3.273,2.652-5.926,5.924-5.926"/>
	<path fill="none" stroke="#622FBC" stroke-width="2" stroke-miterlimit="10" d="M53.059,4.885c3.273,0,5.926,2.652,5.926,5.926"/>
	<path fill="none" stroke="#622FBC" stroke-width="2" stroke-miterlimit="10" d="M51.477,19.105l-3.098,0.086l1.039-2.922
		c-0.686-0.665-1.463-1.234-2.314-1.687l-2.461,1.894l-0.875-2.969c-0.469-0.066-0.945-0.113-1.434-0.113
		c-0.49,0-0.965,0.047-1.434,0.113l-0.877,2.969l-2.461-1.894c-0.85,0.452-1.627,1.021-2.314,1.687l1.041,2.922l-3.098-0.086
		c-0.416,0.851-0.719,1.764-0.885,2.727l2.557,1.75l-2.557,1.752c0.166,0.963,0.469,1.878,0.885,2.727l3.098-0.085l-1.041,2.921
		c0.688,0.666,1.465,1.234,2.314,1.687l2.461-1.894L40.9,33.66c0.469,0.064,0.943,0.109,1.434,0.109
		c0.488,0,0.965-0.045,1.434-0.109l0.875-2.971l2.461,1.894c0.852-0.452,1.629-1.021,2.314-1.687l-1.039-2.921l3.098,0.085
		c0.416-0.849,0.719-1.764,0.885-2.727l-2.557-1.752l2.557-1.75C52.195,20.869,51.893,19.956,51.477,19.105z"/>
</g>
</svg>
