<?xml version="1.0" encoding="utf-8"?>
<!-- Generator: Adobe Illustrator 16.0.0, SVG Export Plug-In . SVG Version: 6.00 Build 0)  -->
<!DOCTYPE svg PUBLIC "-//W3C//DTD SVG 1.1//EN" "http://www.w3.org/Graphics/SVG/1.1/DTD/svg11.dtd">
<svg version="1.1" id="Layer_1" xmlns="http://www.w3.org/2000/svg" xmlns:xlink="http://www.w3.org/1999/xlink" x="0px" y="0px"
	 width="64px" height="64px" viewBox="0 0 64 64" enable-background="new 0 0 64 64" xml:space="preserve">
<g>
	<g>
		<g>
			<line fill="none" stroke="#622FBC" stroke-width="2" stroke-miterlimit="10" x1="14.982" y1="6.917" x2="50.982" y2="6.917"/>
			<line fill="none" stroke="#622FBC" stroke-width="2" stroke-miterlimit="10" x1="14.982" y1="56.916" x2="50.982" y2="56.916"/>
			<path fill="none" stroke="#622FBC" stroke-width="2" stroke-miterlimit="10" d="M14.982,29.917v28c0,2.762,2.238,5,5,5h26
				c2.762,0,5-2.238,5-5v-10"/>
			<path fill="none" stroke="#622FBC" stroke-width="2" stroke-miterlimit="10" d="M50.982,19.917v-14c0-2.762-2.238-5-5-5h-26
				c-2.762,0-5,2.238-5,5v4"/>
			<line fill="none" stroke="#622FBC" stroke-width="2" stroke-miterlimit="10" x1="50.982" y1="33.916" x2="50.982" y2="25.917"/>
			<polygon fill="none" stroke="#622FBC" stroke-width="2" stroke-miterlimit="10" points="20.982,20.917 5.982,20.917 
				0.982,25.917 0.982,12.917 20.982,12.917 			"/>
			<g>
				<polygon fill="none" stroke="#622FBC" stroke-width="2" stroke-miterlimit="10" points="62.982,44.916 34.982,44.916 
					34.982,36.916 57.982,36.916 62.982,31.917 				"/>
			</g>
			<line fill="none" stroke="#622FBC" stroke-width="2" stroke-miterlimit="10" x1="5.982" y1="16.917" x2="7.982" y2="16.917"/>
			<line fill="none" stroke="#622FBC" stroke-width="2" stroke-miterlimit="10" x1="9.982" y1="16.917" x2="11.982" y2="16.917"/>
			<line fill="none" stroke="#622FBC" stroke-width="2" stroke-miterlimit="10" x1="13.982" y1="16.917" x2="15.982" y2="16.917"/>
			<line fill="none" stroke="#622FBC" stroke-width="2" stroke-miterlimit="10" x1="39.982" y1="40.916" x2="51.982" y2="40.916"/>
			<line fill="none" stroke="#622FBC" stroke-width="2" stroke-miterlimit="10" x1="53.982" y1="40.916" x2="57.982" y2="40.916"/>
			<rect x="18.982" y="48.916" fill="none" stroke="#622FBC" stroke-width="2" stroke-miterlimit="10" width="4" height="4"/>
			<rect x="26.982" y="48.916" fill="none" stroke="#622FBC" stroke-width="2" stroke-miterlimit="10" width="4" height="4"/>
			<rect x="34.982" y="48.916" fill="none" stroke="#622FBC" stroke-width="2" stroke-miterlimit="10" width="4" height="4"/>
			<rect x="42.982" y="48.916" fill="none" stroke="#622FBC" stroke-width="2" stroke-miterlimit="10" width="4" height="4"/>
			<circle fill="none" stroke="#622FBC" stroke-width="2" stroke-miterlimit="10" cx="32.982" cy="26.917" r="6"/>
			<polyline fill="none" stroke="#622FBC" stroke-width="2" stroke-miterlimit="10" points="31.982,40.916 18.982,40.916 
				18.982,29.917 			"/>
			<line fill="none" stroke="#622FBC" stroke-width="2" stroke-miterlimit="10" x1="46.982" y1="25.917" x2="46.982" y2="33.916"/>
			<polyline fill="none" stroke="#622FBC" stroke-width="2" stroke-miterlimit="10" points="23.982,12.917 46.982,12.917 
				46.982,19.917 			"/>
			<line fill="none" stroke="#622FBC" stroke-width="2" stroke-miterlimit="10" x1="17.982" y1="44.916" x2="19.982" y2="44.916"/>
			<line fill="none" stroke="#622FBC" stroke-width="2" stroke-miterlimit="10" x1="21.982" y1="44.916" x2="23.982" y2="44.916"/>
			<line fill="none" stroke="#622FBC" stroke-width="2" stroke-miterlimit="10" x1="25.982" y1="44.916" x2="27.982" y2="44.916"/>
			<line fill="none" stroke="#622FBC" stroke-width="2" stroke-miterlimit="10" x1="29.982" y1="44.916" x2="31.982" y2="44.916"/>
			<line fill="none" stroke="#622FBC" stroke-width="2" stroke-miterlimit="10" x1="41.982" y1="22.917" x2="63.982" y2="22.917"/>
			<line fill="none" stroke="#622FBC" stroke-width="2" stroke-miterlimit="10" x1="63.982" y1="16.917" x2="53.982" y2="16.917"/>
			<line fill="none" stroke="#622FBC" stroke-width="2" stroke-miterlimit="10" x1="63.982" y1="12.917" x2="53.982" y2="12.917"/>
		</g>
		<path fill="none" stroke="#622FBC" stroke-width="2" stroke-miterlimit="10" d="M6.982,37.916v-9c0-1.104,0.895-2,2-2h15"/>
		<circle fill="none" stroke="#622FBC" stroke-width="2" stroke-miterlimit="10" cx="6.982" cy="44.916" r="4"/>
		<line fill="none" stroke="#622FBC" stroke-width="2" stroke-miterlimit="10" x1="43.982" y1="26.917" x2="41.982" y2="26.917"/>
		<line fill="none" stroke="#622FBC" stroke-width="2" stroke-miterlimit="10" x1="23.982" y1="37.916" x2="21.982" y2="37.916"/>
		<line fill="none" stroke="#622FBC" stroke-width="2" stroke-miterlimit="10" x1="25.982" y1="16.917" x2="23.982" y2="16.917"/>
		<line fill="none" stroke="#622FBC" stroke-width="2" stroke-miterlimit="10" x1="3.982" y1="52.916" x2="5.982" y2="52.916"/>
		<line fill="none" stroke="#622FBC" stroke-width="2" stroke-miterlimit="10" x1="7.982" y1="52.916" x2="9.982" y2="52.916"/>
	</g>
</g>
</svg>
