<?xml version="1.0" encoding="utf-8"?>
<!-- Generator: Adobe Illustrator 16.0.0, SVG Export Plug-In . SVG Version: 6.00 Build 0)  -->
<!DOCTYPE svg PUBLIC "-//W3C//DTD SVG 1.1//EN" "http://www.w3.org/Graphics/SVG/1.1/DTD/svg11.dtd">
<svg version="1.1" id="Layer_1" xmlns="http://www.w3.org/2000/svg" xmlns:xlink="http://www.w3.org/1999/xlink" x="0px" y="0px"
	 width="64px" height="64px" viewBox="0 0 64 64" enable-background="new 0 0 64 64" xml:space="preserve">
<g>
	<g>
		<g>
			<g>
				<path fill="none" stroke="#622FBC" stroke-width="2" stroke-miterlimit="10" d="M40,40.98h11c6.627,0,12-5.372,12-12
					c0-5.947-4-11-10-11c0-5-3-9-9-9h-1c-2.729-4.924-7.973-8-14-8c-8.836,0-16,7.164-16,16c-6.627,0-12,5.373-12,12
					c0,6.627,5.373,12,12,12h11"/>
				<path fill="none" stroke="#622FBC" stroke-width="2" stroke-miterlimit="10" d="M19,17.981c0-6.075,5-11,10-11"/>
			</g>
			<line fill="none" stroke="#622FBC" stroke-width="2" stroke-miterlimit="10" x1="15" y1="48.98" x2="8" y2="48.98"/>
			<path fill="none" stroke="#622FBC" stroke-width="2" stroke-miterlimit="10" d="M29,31.981v13c0,2.209-1.791,4-4,4h-2"/>
			<line fill="none" stroke="#622FBC" stroke-width="2" stroke-miterlimit="10" x1="49" y1="58.98" x2="55" y2="58.98"/>
			<path fill="none" stroke="#622FBC" stroke-width="2" stroke-miterlimit="10" d="M35,31.981v23c0,2.209,1.791,4,4,4h2"/>
			<line fill="none" stroke="#622FBC" stroke-width="2" stroke-miterlimit="10" x1="24" y1="30.981" x2="40" y2="30.981"/>
			<circle fill="none" stroke="#622FBC" stroke-width="2" stroke-miterlimit="10" cx="5" cy="48.98" r="4"/>
			<circle fill="none" stroke="#622FBC" stroke-width="2" stroke-miterlimit="10" cx="19" cy="48.98" r="4"/>
			<circle fill="none" stroke="#622FBC" stroke-width="2" stroke-miterlimit="10" cx="45" cy="58.98" r="4"/>
			<circle fill="none" stroke="#622FBC" stroke-width="2" stroke-miterlimit="10" cx="59" cy="58.98" r="4"/>
			<line fill="none" stroke="#622FBC" stroke-width="2" stroke-miterlimit="10" x1="42" y1="30.981" x2="44" y2="30.981"/>
			<line fill="none" stroke="#622FBC" stroke-width="2" stroke-miterlimit="10" x1="46" y1="30.981" x2="48" y2="30.981"/>
			<line fill="none" stroke="#622FBC" stroke-width="2" stroke-miterlimit="10" x1="50" y1="30.981" x2="52" y2="30.981"/>
			<line fill="none" stroke="#622FBC" stroke-width="2" stroke-miterlimit="10" x1="12" y1="30.981" x2="14" y2="30.981"/>
			<line fill="none" stroke="#622FBC" stroke-width="2" stroke-miterlimit="10" x1="16" y1="30.981" x2="18" y2="30.981"/>
			<line fill="none" stroke="#622FBC" stroke-width="2" stroke-miterlimit="10" x1="20" y1="30.981" x2="22" y2="30.981"/>
		</g>
	</g>
</g>
</svg>
