<?xml version="1.0" encoding="utf-8"?>
<!DOCTYPE svg PUBLIC "-//W3C//DTD SVG 1.1//EN" "http://www.w3.org/Graphics/SVG/1.1/DTD/svg11.dtd">
<svg version="1.1" id="logo" xmlns="http://www.w3.org/2000/svg" xmlns:xlink="http://www.w3.org/1999/xlink" x="0px"
	 y="0px" width="35px" height="55px" viewBox="0 0 35 55" enable-background="new 0 0 35 55" xml:space="preserve">
<path fill="#fff" d="M16.1,42.3c0.4,0.1,0.8-0.1,1-0.4c1-2.1,2.5-4,4.5-5.9c1-0.9,2.1-1.8,3.1-2.8l0.3-0.2
	c1.3-1.1,2.6-2.2,3.8-3.4c3.3-3,5.2-6.2,5.8-9.9c1.6-9-4.2-17.5-13.2-19.4C20.5,0.1,19.4,0,18.2,0c-3.8,0-7.5,1.3-10.4,3.6
	c-3.8,3-6,7.5-6.2,12.4c-0.1,2.2,0.1,6.4,0.1,6.5l0.1,2.6c0,2.2,1.8,4,4,4C7,29,8,28.6,8.7,27.8c0.7-0.7,1.1-1.8,1.1-2.8l0.1-2.5
	l3,4.6c0.2,0.3,0.5,0.4,0.9,0.4c0.3-0.1,0.6-0.3,0.7-0.6l1.1-4.7l2.9,5.3c0.2,0.3,0.4,0.8,0.7,0.8h0.1c0.3,0,0.6-0.6,0.7-0.9
	l5.2-12.5l0.9,2.4l1.6-0.6L26,12.4c-0.1-0.2-0.3-0.4-0.5-0.5c-0.2-0.1-0.5-0.1-0.7,0L20.4,14l0.7,1.5l2.4-1.2L19,25l-3.1-5.4
	c-0.2-0.3-0.5-0.5-0.9-0.4c-0.3,0.1-0.6,0.3-0.7,0.6l-1.1,4.8L10,19.5c-0.1-0.1-0.2-0.2-0.3-0.3c-0.2-0.2-0.6-0.2-0.8,0
	c-0.2,0.1-0.4,0.3-0.4,0.5c0,0.1,0,0.2,0,0.2L8.2,25c0,0.6-0.2,1.2-0.7,1.6c-0.4,0.4-1,0.7-1.6,0.7c-1.3,0-2.3-1-2.3-2.3l-0.1-2.6
	c0-0.7-0.2-4.5-0.1-6.4C3.5,11.6,5.4,7.7,8.9,5c2.7-2.1,6-3.3,9.4-3.3c1,0,2,0.1,3,0.3c8.1,1.6,13.3,9.3,11.8,17.4
	c-0.6,3.3-2.3,6.2-5.3,9c-1.2,1.1-2.5,2.2-3.7,3.3l-0.1,0.1c-1.1,1-2.3,2-3.4,3c-2,1.8-3.5,3.6-4.5,5.6l-0.1,0.1l-11.3-3
	c-0.4-0.1-0.8-0.2-1.2-0.2c-1.4,0-2.6,0.7-3.1,1.9C0,40.1,0,41.1,0.4,42c0.4,0.8,1,1.3,1.8,1.5l9.4,2.6c0.4,0.2,0.7,0.5,0.9,0.8
	c0.2,0.4,0.2,0.8,0,1.2C12.2,48.7,11.7,49,11,49c-0.2,0-0.5,0-0.7-0.1l-5.9-1.7c-0.4-0.1-0.7-0.2-1.1-0.2c-1.4,0-2.5,0.7-3,1.9
	c-0.9,2.2,0.1,4.7,2.3,5.6c1.3,0.6,2.8,0.4,4-0.4l-1-1.4c-0.7,0.4-1.6,0.5-2.4,0.2C2,52.5,1.3,51,1.9,49.7c0.2-0.6,0.8-0.9,1.5-0.9
	c0.2,0,0.4,0,0.6,0.1l5.8,1.7c0.4,0.1,0.8,0.2,1.2,0.2c1.4,0,2.5-0.7,3-1.9c0.3-0.8,0.3-1.7,0-2.5c-0.3-0.8-1-1.4-1.9-1.8
	c0,0-0.1,0-0.1,0l-9.5-2.6c-0.3-0.1-0.6-0.3-0.7-0.6c-0.2-0.4-0.2-0.9,0-1.4C2.2,39.3,2.7,39,3.4,39c0.2,0,0.5,0,0.8,0.1L16.1,42.3z
	"/>
</svg>
